<?xml version="1.0" encoding="utf-8"?>
<!-- Generator: Adobe Illustrator 17.0.0, SVG Export Plug-In . SVG Version: 6.00 Build 0)  -->
<!DOCTYPE svg PUBLIC "-//W3C//DTD SVG 1.1//EN" "http://www.w3.org/Graphics/SVG/1.1/DTD/svg11.dtd">
<svg version="1.1" id="Layer_1" xmlns="http://www.w3.org/2000/svg" xmlns:xlink="http://www.w3.org/1999/xlink" x="0px" y="0px"
	 width="3569px" height="909px" viewBox="0 0 3569 909" enable-background="new 0 0 3569 909" xml:space="preserve">
<g>
	<g>
		<path fill="#FFFFFF" d="M2223.22,653.727c1.435-10.153,2.454-19.599,4.174-28.915c1.766-9.568,4.625-18.939,6.279-28.522
			c3.024-17.526,5.308-35.178,8.281-52.713c3.021-17.822,6.432-35.579,9.806-53.339c2.146-11.293,0.571-22.356-3.641-32.654
			c-3.884-9.497-12.59-14.008-22.539-15.417c-19.592-2.776-46.796,5.062-55.207,33.561c-4.758,16.12-8.782,32.186-11.176,48.843
			c-2.479,17.247-6.771,34.227-9.95,51.383c-1.851,9.987-2.864,20.128-4.635,30.131c-1.914,10.815-4.408,21.527-6.372,32.334
			c-0.825,4.542-0.94,9.212-1.49,15.007c-39.436,0-78.82,0-118.344,0c-1.592-7.912,0.397-13.718,6.578-19.572
			c28.446-26.941,53.687-56.788,77.16-88.132c0.8-1.068,1.045-2.551,0.558-4.63c-10.574,8.395-21.252,16.662-31.703,25.208
			c-38.483,31.468-80.499,57.241-127.226,74.119c-38.649,13.961-78.437,23.956-120.044,25.346
			c-22.062,0.737-43.863,0.205-65.433-4.365c-42.063-8.912-73.476-31.305-90.569-71.904c-5.705-13.551-8.008-27.509-8.203-42.092
			c-0.303-22.621,1.552-45.063,8.895-66.446c10.57-30.778,28.375-57.225,52.404-79.229c25.121-23.003,53.919-40.272,87.153-47.81
			c30.258-6.863,61.109-7.841,92.14-2.494c26.005,4.481,48.74,15.155,67.817,32.796c14.667,13.563,24.53,30.789,31.448,49.656
			c11.527,31.435,8.346,63.825,7.301,97.347c-4.906,0.529-9.36,1.421-13.816,1.427c-67.689,0.089-135.378,0.034-203.067,0.13
			c-4.406,0.006-8.81,0.968-12.778,1.434c-3.462,22.572,7.224,43.004,26.432,51.718c14.796,6.712,30.095,10.731,46.235,12.958
			c27.954,3.856,55.534,1.243,82.601-4.687c24.098-5.28,47.604-13.336,71.255-20.546c8.005-2.44,15.506-6.547,23.527-8.91
			c4.55-1.341,5.383-3.764,6.1-7.761c3.291-18.341,7.098-36.59,10.401-54.929c1.796-9.97,2.735-20.093,4.459-30.078
			c1.924-11.135,4.336-22.185,6.469-33.285c1.446-7.523,2.957-15.041,4.114-22.61c1.671-10.936,2.951-21.931,4.585-32.873
			c1.082-7.242,2.01-14.575,4.031-21.572c0.675-2.337,4.508-5.334,6.924-5.358c34.298-0.348,68.6-0.237,103.906-0.237
			c-2.632,14.107-5.132,27.51-7.633,40.912c0.763,0.313,1.526,0.626,2.289,0.939c6.902-6.193,13.512-12.754,20.758-18.514
			c29.478-23.434,62.9-33.799,100.673-30.653c22.748,1.894,43.574,8.119,60.702,23.629c9.413,8.524,14.346,19.691,17.927,32.014
			c6.218,21.398,4.041,42.972,2.333,64.312c-1.336,16.689-6.458,33.057-9.562,49.63c-1.86,9.93-2.841,20.024-4.639,29.967
			c-1.895,10.474-4.368,20.842-6.446,31.285c-1.496,7.516-2.872,15.059-4.096,22.623c-1.569,9.698-2.783,19.454-4.434,29.136
			c-1.233,7.232-2.916,14.386-4.569,22.404C2302.541,653.727,2263.36,653.727,2223.22,653.727z M1790.788,470.4
			c35.344,0,69.475,0,103.414,0c4.514-21.592-10.624-41.434-25.839-46.403c-24.018-7.845-45.923-2.255-63.849,15.184
			C1796.459,447.017,1790.038,456.95,1790.788,470.4z"/>
		<path fill="#FFFFFF" d="M1163.258,541.429c-42.051-8.865-75.836-32.832-110.297-56.519c7.652-42.661,15.255-85.054,22.962-128.022
			c35.206,0,70.434,0,105.844,0c-2.011,12.986-3.844,24.823-5.794,37.415c10.277-8.56,18.936-17.315,29.018-23.888
			c34.165-22.275,71.924-28.18,110.913-17.911c28.989,7.635,48.633,28.255,61.13,55.404c11.354,24.664,13.8,51.015,10.549,77.267
			c-5.759,46.51-20.682,89.469-53.042,125.283c-15.496,17.15-33.693,30.623-53.245,41.664c-12.201,6.89-27.353,9.743-41.55,11.642
			c-24.385,3.262-48.903,1.934-72.904-4.439c-7.658-2.034-15.3-4.129-23.623-6.379c-5.151,27.186-10.082,53.212-14.986,79.097
			c-40.798,0-79.71,0-119.33,0c1.316-9.307,2.242-18.01,3.841-26.589c1.788-9.593,4.434-19.025,6.268-28.61
			c3.8-19.864,7.302-39.784,10.944-59.678c1.265-6.907,2.833-13.768,3.815-20.714c1.135-8.022,0.391-14.509-6.632-21.294
			c-41.607-40.193-74.868-86.986-104.63-136.372c-2.4-3.983-4.562-8.11-5.562-13.265c7.636,6.278,15.307,12.514,22.902,18.84
			c41.292,34.392,84.666,65.834,131.436,92.422c25.682,14.6,52.414,27.032,80.998,34.656c19.531,5.209,39.441,7.609,59.593,1.641
			c19.39-5.742,32.822-18.174,42.034-35.576c11.584-21.88,13.204-45.547,11.206-69.609c-1.668-20.089-23.145-35.21-43.258-31.711
			c-23.774,4.136-37.606,19.259-45.805,40.488c-3.935,10.188-7.295,20.752-9.411,31.444
			C1164.563,518.63,1164.384,529.521,1163.258,541.429z"/>
		<path fill="#FFFFFF" d="M1396.777,652.952c2.17-11.16,4.405-21.315,6.078-31.562c2.912-17.835,5.281-35.758,8.238-53.585
			c3.507-21.146,7.405-42.228,11.115-63.341c3.764-21.416,7.477-42.841,11.267-64.253c3.623-20.471,7.241-40.944,11.021-61.387
			c1.277-6.907,3.044-13.723,4.889-21.925c34.779,0,70.401,0,107.64,0c-2.744,17.174-5.46,34.173-8.176,51.171
			c0.499,0.358,0.997,0.716,1.496,1.074c26.816-43.727,64.208-66.227,116.841-59.627c-7.102,39.778-14.107,79.015-21.159,118.519
			c-4.483-0.457-7.272-0.477-9.941-1.053c-24.337-5.258-46.43-0.349-66.646,14.087c-12.13,8.661-19.049,21.02-24.553,34.214
			c-8.89,21.311-12.379,43.91-15.513,66.67c-2.418,17.56-6.652,34.867-9.929,52.314c-0.684,3.641-0.879,7.4-0.999,11.115
			c-0.194,6.034-2.956,9.099-9.172,9.092c-35.288-0.04-70.576,0.016-105.864-0.061
			C1401.341,654.409,1399.273,653.525,1396.777,652.952z"/>
		<path fill="#FFFFFF" d="M2462.962,176.604l116.399,12.938l-22.615,203.451l2.007,0.223c32.326-30.057,67.22-43.003,104.682-38.839
			c26.758,2.974,46.75,12.598,59.978,28.856c13.227,16.263,18.365,37.667,15.414,64.214l-21.876,206.284h-118.515l18.421-172.754
			c1.339-12.046-0.49-21.787-5.487-29.235c-4.997-7.443-12.579-11.73-22.747-12.861c-24.35-2.707-38.05,9.66-41.1,37.099
			l-21.617,177.374l-116.496,0.378L2462.962,176.604z"/>
		<path fill="#FFFFFF" d="M2924.739,346.014c48.751,4.396,84.574,22.056,107.47,52.982c22.896,30.93,32.046,71.883,27.448,122.873
			c-4.5,49.91-21.212,87.338-50.134,112.283c-28.923,24.95-66.779,35.309-113.57,31.09c-44.831-4.042-79.157-21.187-102.979-51.433
			c-23.822-30.246-33.531-69.784-29.128-118.614c4.598-50.99,20.742-89.662,48.434-116.031
			C2839.972,352.801,2877.458,341.751,2924.739,346.014z M2904.287,581.045c13.964,1.259,24.952-3.518,32.967-14.344
			c8.014-10.822,13.268-30.056,15.762-57.716c2.474-27.435,0.778-46.978-5.087-58.616c-5.866-11.638-15.658-18.075-29.377-19.312
			c-13.474-1.215-24.245,3.205-32.314,13.259c-8.069,10.054-13.389,29.341-15.961,57.861
			C2865.758,552.304,2877.094,578.593,2904.287,581.045z"/>
		<path fill="#FFFFFF" d="M3111.353,560.562c36.377,18.796,62.577,28.109,78.602,27.941c8.74-0.092,16.003-2.179,21.787-6.276
			c5.785-4.092,8.647-8.967,8.588-14.637c-0.064-6.097-2.539-10.543-7.424-13.325c-4.885-2.777-23.175-10.217-54.868-22.306
			c-25.355-9.754-43.689-21.388-55-34.89c-11.311-13.497-17.073-30.385-17.286-50.65c-0.304-28.976,10.553-52.953,32.571-71.931
			c22.018-18.973,50.266-28.64,84.742-29.002c33.505-0.352,74.662,11.202,123.471,34.661l-40.078,68.087
			c-31.746-17.101-57.694-25.545-77.846-25.334c-17.481,0.184-26.155,6.599-26.022,19.233c0.064,6.101,3.336,11.356,9.817,15.751
			c6.481,4.399,18.248,9.238,35.3,14.503c31.91,9.69,55.162,21.436,69.754,35.225c14.592,13.794,22.001,31.368,22.225,52.723
			c0.32,30.511-10.828,55.685-33.444,75.536s-51.648,29.962-87.095,30.335c-38.361,0.403-79.519-11.26-123.475-34.988
			L3111.353,560.562z"/>
		<path fill="#FFFFFF" d="M3420.956,206.068l103.361,32.231l-13.065,102.449l40.231,3.84l-8.039,84.215l-40.943-3.908
			l-22.084,228.48l-101.746,1.271l21.005-240.267l-39.163-3.738l7.972-83.519l39.163,3.738L3420.956,206.068z"/>
	</g>
	<g>
		<path fill="#FFFFFF" d="M407.676,329.999c-8.214,5.355-15.269,12.488-23.641,19.461c1.589-10.258,3.082-19.902,4.72-30.481
			c-28.848,0-57.548,0-86.23,0c-6.278,35.005-12.473,69.542-18.707,104.297c28.075,19.297,55.599,38.823,89.858,46.046
			c0.917-9.702,1.063-18.575,2.759-27.141c1.725-8.71,4.462-17.317,7.668-25.617c6.68-17.295,17.948-29.615,37.316-32.985
			c16.385-2.851,33.882,9.468,35.241,25.834c0.596,7.173,0.782,14.3,0.335,21.331l13.386-119.262
			C448.472,311.046,427.341,317.177,407.676,329.999z"/>
		<path fill="#FFFFFF" d="M447.531,466.124c-7.505,14.177-18.448,24.306-34.245,28.983c-16.418,4.861-32.638,2.906-48.549-1.337
			c-23.288-6.211-45.065-16.339-65.988-28.233c-38.103-21.661-73.439-47.276-107.079-75.295
			c-6.188-5.154-12.437-10.234-18.658-15.349c0.814,4.2,2.575,7.562,4.531,10.807c24.246,40.234,51.343,78.355,85.24,111.1
			c5.722,5.528,6.328,10.813,5.403,17.348c-0.8,5.658-2.078,11.248-3.108,16.875c-2.968,16.207-5.82,32.436-8.916,48.619
			c-1.494,7.81-3.65,15.493-5.107,23.308c-1.303,6.989-2.057,14.08-3.129,21.661c32.277,0,63.979,0,97.216,0
			c3.995-21.088,8.013-42.291,12.209-64.439c6.78,1.832,13.006,3.54,19.245,5.197c19.553,5.192,39.528,6.274,59.394,3.617
			c1.844-0.247,3.711-0.525,5.582-0.821l14.363-127.969C454.547,449.077,451.957,457.765,447.531,466.124z"/>
		<path fill="#FFFFFF" d="M550.101,456.316c2.875-10.64,4.941-21.601,6.331-32.824c0.491-3.961,0.762-7.923,0.917-11.88
			c-1.75,4.092-2.952,8.959-3.583,14.635L550.101,456.316z"/>
		<path fill="#FFFFFF" d="M469.841,559.5c-8.355,4.718-18.406,7.101-28.269,8.664l-0.325,2.894l94.907-0.308l13.947-114.435
			c-6.831,25.28-18.328,48.707-36.882,69.242C500.594,539.53,485.77,550.506,469.841,559.5z"/>
		<path fill="#FFFFFF" d="M455.935,440.195c0.489-3.128,0.859-6.276,1.061-9.449L455.935,440.195z"/>
		<path fill="#FFFFFF" d="M697.062,350.687c-10.776-13.245-27.063-21.085-48.863-23.508c-30.52-3.393-58.947,7.155-85.283,31.641
			l-1.635-0.182l15.003-134.97l-93.916-18.971l-11.986,106.786c9.1,0.181,18.332,1.469,27.653,3.924
			c23.617,6.22,39.621,23.019,49.802,45.137c7.536,16.372,10.195,33.658,9.511,51.068c5.141-12.026,15.1-17.234,29.901-15.589
			c8.284,0.921,14.461,4.413,18.532,10.477c4.07,6.068,5.561,14.003,4.47,23.818l-15.008,140.741h96.553l17.822-168.057
			C712.023,381.374,707.837,363.936,697.062,350.687z"/>
		<path fill="#FFFFFF" d="M547.837,360.543c-10.181-22.118-26.185-38.917-49.802-45.137c-9.322-2.455-18.553-3.742-27.653-3.924
			l-13.386,119.262c-0.202,3.173-0.571,6.321-1.061,9.449l-14.363,127.969c9.863-1.563,19.914-3.946,28.269-8.664
			c15.929-8.995,30.753-19.971,43.378-33.943c18.554-20.535,30.051-43.961,36.882-69.242l3.665-30.069
			c0.631-5.676,1.833-10.543,3.583-14.635C558.033,394.202,555.374,376.916,547.837,360.543z"/>
		<path fill="#FFFFFF" d="M888.401,446.805c-0.191,75.6-22.662,133.361-70.09,180.864c-61.103,61.2-122.068,122.545-183.673,183.238
			c-100.906,99.412-249.699,102.286-353.403,4.651c-66.433-62.545-131.153-127.1-193.773-193.461
			c-91.169-96.616-86.74-249.2,7.013-342.052c60.585-60.003,120.981-120.196,181.512-180.254
			C378.552-1.973,527.086-5.238,631.605,94.098c64.405,61.212,127.025,124.388,188.637,188.422
			C866.174,330.259,890.15,388.218,888.401,446.805z M455.669,800.04c41.158,1.595,79.298-11.623,109.916-41.483
			c66.168-64.53,132.719-128.787,196.256-195.863c60.601-63.976,58.102-157.46-3.659-220.855
			c-61.999-63.64-124.867-126.477-188.699-188.277c-63.567-61.543-161.176-63.466-225.097-2.935
			c-66.245,62.732-131.094,127.096-193.858,193.301c-61.043,64.39-58.298,161.044,3.865,224.375
			c61.399,62.553,124.055,123.872,185.95,185.942C371.763,785.752,409.574,800.771,455.669,800.04z"/>
	</g>
</g>
</svg>
